<svg width="460" height="460" viewBox="0 0 460 460" fill="none" xmlns="http://www.w3.org/2000/svg">
  <path
    d="M416.667 107.333H43.3334C19.7692 107.333 0.666687 126.436 0.666687 150V203.333C0.666687 226.897 19.7692 246 43.3334 246H416.667C440.231 246 459.333 226.897 459.333 203.333V150C459.333 126.436 440.231 107.333 416.667 107.333Z"
    fill="#fff" />
  <path
    d="M214 267.333V459.333H91.3334C83.6276 459.339 75.9963 457.825 68.876 454.879C61.7557 451.933 55.2861 447.612 49.8372 442.163C44.3884 436.714 40.0673 430.244 37.121 423.124C34.1747 416.004 32.6611 408.372 32.6667 400.667V262.64C41.2179 265.732 50.2401 267.32 59.3334 267.333H214ZM427.333 262.64V400.667C427.339 408.372 425.825 416.004 422.879 423.124C419.933 430.244 415.612 436.714 410.163 442.163C404.714 447.612 398.244 451.933 391.124 454.879C384.004 457.825 376.372 459.339 368.667 459.333H246V267.333H400.667C409.76 267.32 418.782 265.732 427.333 262.64ZM304.667 139.333H230C227.626 139.338 225.281 138.813 223.135 137.797C220.989 136.782 219.096 135.301 217.595 133.462C216.093 131.623 215.02 129.473 214.453 127.167C213.887 124.861 213.841 122.459 214.32 120.133L225.179 65.776C228.903 47.4292 238.847 30.9306 253.329 19.0678C267.812 7.20493 285.946 0.70514 304.667 0.666626C323.055 0.666626 340.69 7.97136 353.693 20.9739C366.695 33.9764 374 51.6116 374 70C374 88.3883 366.695 106.024 353.693 119.026C340.69 132.029 323.055 139.333 304.667 139.333ZM249.52 107.333H304.667C314.568 107.333 324.064 103.4 331.065 96.3986C338.067 89.3973 342 79.9014 342 70C342 60.0985 338.067 50.6027 331.065 43.6013C324.064 36.6 314.568 32.6666 304.667 32.6666C293.327 32.6895 282.344 36.6308 273.577 43.8231C264.81 51.0155 258.798 61.0168 256.56 72.1333L249.52 107.333Z"
    fill="#fff" />
  <path
    d="M230 139.333H155.333C136.945 139.333 119.31 132.029 106.307 119.026C93.3048 106.024 86 88.3883 86 70C86 51.6116 93.3048 33.9764 106.307 20.9739C119.31 7.97136 136.945 0.666626 155.333 0.666626C174.063 0.708148 192.204 7.21705 206.688 19.0926C221.172 30.9681 231.11 47.4814 234.821 65.84L245.68 120.197C246.159 122.523 246.113 124.925 245.547 127.231C244.98 129.537 243.907 131.687 242.405 133.526C240.904 135.365 239.011 136.846 236.865 137.861C234.719 138.877 232.374 139.402 230 139.397L230 139.333ZM155.333 32.6666C145.432 32.6666 135.936 36.6 128.935 43.6013C121.933 50.6027 118 60.0985 118 70C118 79.9014 121.933 89.3973 128.935 96.3986C135.936 103.4 145.432 107.333 155.333 107.333H210.48L203.44 72.1333C201.202 61.0168 195.19 51.0155 186.423 43.8231C177.656 36.6308 166.673 32.6895 155.333 32.6666Z"
    fill="#fff" />
</svg>