<svg width="427" height="427" viewBox="0 0 427 427" fill="none" xmlns="http://www.w3.org/2000/svg">
  <path
    d="M68.2667 138.667H0V362.667C0 379.641 6.74284 395.919 18.7452 407.922C30.7475 419.924 47.0261 426.667 64 426.667H221.696C190.467 407.96 167.147 378.491 156.119 343.799C145.091 309.107 147.115 271.581 161.81 238.276C176.505 204.972 202.859 178.181 235.918 162.942C268.978 147.702 306.465 145.063 341.333 155.52V64C341.333 47.0261 334.591 30.7475 322.588 18.7452C310.586 6.74284 294.307 0 277.333 0H138.667V68.2667C138.667 86.9379 131.25 104.844 118.047 118.047C104.844 131.25 86.9379 138.667 68.2667 138.667Z"
    fill="#fff" />
  <path
    d="M112.917 6.25067C114.235 4.93192 115.719 3.79155 117.333 2.85867V68.2667C117.333 81.28 112.164 93.7603 102.962 102.962C93.7603 112.164 81.28 117.333 68.2667 117.333H2.85867C3.79155 115.719 4.93192 114.235 6.25067 112.917L112.917 6.25067Z"
    fill="#fff" />
  <path fill-rule="evenodd" clip-rule="evenodd"
    d="M170.667 298.667C170.667 264.719 184.152 232.162 208.157 208.157C232.162 184.152 264.719 170.667 298.667 170.667C332.614 170.667 365.172 184.152 389.176 208.157C413.181 232.162 426.667 264.719 426.667 298.667C426.667 332.614 413.181 365.172 389.176 389.176C365.172 413.181 332.614 426.667 298.667 426.667C264.719 426.667 232.162 413.181 208.157 389.176C184.152 365.172 170.667 332.614 170.667 298.667ZM298.667 298.667C304.325 298.667 309.751 300.914 313.752 304.915C317.752 308.916 320 314.342 320 320V341.333C320 346.991 317.752 352.418 313.752 356.418C309.751 360.419 304.325 362.667 298.667 362.667C293.009 362.667 287.583 360.419 283.582 356.418C279.581 352.418 277.333 346.991 277.333 341.333V320C277.333 314.342 279.581 308.916 283.582 304.915C287.583 300.914 293.009 298.667 298.667 298.667ZM298.667 277.333C304.325 277.333 309.751 275.086 313.752 271.085C317.752 267.084 320 261.658 320 256C320 250.342 317.752 244.916 313.752 240.915C309.751 236.914 304.325 234.667 298.667 234.667C293.009 234.667 287.583 236.914 283.582 240.915C279.581 244.916 277.333 250.342 277.333 256C277.333 261.658 279.581 267.084 283.582 271.085C287.583 275.086 293.009 277.333 298.667 277.333Z"
    fill="#fff" />
</svg>