<svg width="512" height="512" viewBox="0 0 512 512" fill="none" xmlns="http://www.w3.org/2000/svg">
  <path
    d="M121.695 142.908L64.78 85.993C41.905 111.694 24.12 142.013 13.023 175.365L90.817 196.21C97.943 176.583 108.478 158.58 121.695 142.908ZM196.21 90.817L175.365 13.023C142.013 24.12 111.694 41.905 85.993 64.78L142.908 121.695C158.58 108.478 176.583 97.943 196.21 90.817ZM90.817 315.79L13.023 336.635C24.12 369.987 41.905 400.307 64.78 426.007L121.695 369.092C108.478 353.42 97.943 335.417 90.817 315.79ZM506.76 204.338L428.957 225.185C430.735 235.192 431.666 245.489 431.666 256C431.666 266.511 430.735 276.807 428.957 286.815L506.76 307.662C510.194 290.971 512 273.692 512 256C512 238.308 510.194 221.029 506.76 204.338ZM85.993 447.22C111.694 470.095 142.013 487.88 175.365 498.977L196.21 421.183C176.583 414.057 158.58 403.522 142.908 390.305L85.993 447.22ZM315.79 421.183L336.635 498.977C369.987 487.88 400.306 470.095 426.007 447.22L369.092 390.305C353.42 403.522 335.417 414.057 315.79 421.183ZM80.333 256C80.333 245.49 81.264 235.193 83.042 225.185L5.24 204.338C1.806 221.029 0 238.308 0 256C0 273.692 1.806 290.971 5.24 307.662L83.043 286.815C81.2368 276.643 80.3299 266.331 80.333 256ZM256 80.333C266.51 80.333 276.807 81.264 286.815 83.042L307.662 5.24C290.971 1.806 273.692 0 256 0C238.308 0 221.029 1.806 204.338 5.24L225.185 83.043C235.357 81.2368 245.669 80.3299 256 80.333ZM256 431.667C245.49 431.667 235.193 430.736 225.185 428.958L204.338 506.761C221.029 510.195 238.308 512.001 256 512.001C273.692 512.001 290.971 510.195 307.662 506.761L286.815 428.958C276.643 430.763 266.331 431.67 256 431.667ZM390.305 369.092L447.22 426.007C470.095 400.306 487.88 369.987 498.977 336.635L421.183 315.79C414.057 335.417 403.522 353.42 390.305 369.092ZM421.183 196.21L498.977 175.365C487.88 142.013 470.095 111.693 447.22 85.993L390.305 142.908C403.522 158.58 414.057 176.583 421.183 196.21ZM426.007 64.78C400.306 41.905 369.987 24.12 336.635 13.023L315.79 90.817C335.417 97.943 353.42 108.478 369.092 121.695L426.007 64.78ZM298.638 247.575L255.983 204.914L213.362 247.536C204.538 256.36 204.538 270.719 213.363 279.544C217.639 283.82 223.324 286.176 229.37 286.176C235.416 286.176 241.101 283.821 245.378 279.544C248.191 276.731 252.006 275.15 255.984 275.15H255.986C259.965 275.15 263.781 276.732 266.593 279.546C270.872 283.828 276.567 286.189 282.627 286.195H282.651C288.697 286.195 294.374 283.848 298.638 279.583C307.463 270.759 307.463 256.4 298.638 247.575Z"
    fill="#fff" />
  <path
    d="M256 110.333C175.679 110.333 110.333 175.679 110.333 256C110.333 336.321 175.679 401.667 256 401.667C336.321 401.667 401.667 336.321 401.667 256C401.667 175.679 336.321 110.333 256 110.333ZM319.853 300.797C309.92 310.728 296.71 316.195 282.653 316.195H282.596C278.693 316.191 274.802 315.758 270.993 314.903L271 333.323C271 341.607 264.284 348.323 256 348.323C247.716 348.323 241 341.607 241 333.323L240.993 314.888C237.178 315.744 233.279 316.175 229.369 316.175C215.31 316.175 202.092 310.699 192.148 300.757C171.627 280.235 171.627 246.844 192.148 226.323L245.377 173.094C246.77 171.701 248.423 170.596 250.243 169.842C252.063 169.088 254.013 168.7 255.983 168.7H255.984C259.962 168.7 263.777 170.281 266.59 173.094L319.852 226.363C340.372 246.884 340.372 280.275 319.853 300.797Z"
    fill="#fff" />
</svg>