<svg xmlns="http://www.w3.org/2000/svg" id="flag-icon-css-gb" viewBox="0 0 512 512"><defs><clipPath id="a"><path fill-opacity=".7" d="M250 0h5e2v5e2H250z"/></clipPath></defs><g clip-path="url(#a)" transform="translate(-256) scale(1.024)"><g stroke-width="1pt"><path fill="#012169" d="M0 0h1e3v5e2H0z"/><path fill="#fff" d="M0 0v55.9L888.2 5e2H1e3v-55.9L111.8.1H0zm1e3.0v55.9L111.8 5e2H0v-55.9L888.2.0H1e3z"/><path fill="#fff" d="M416.7.0v5e2h166.6V0H416.7zM0 166.7v166.6h1e3V166.7H0z"/><path fill="#c8102e" d="M0 2e2v1e2h1e3V2e2H0zM450 0v5e2h1e2V0H450zM0 5e2l333.3-166.7H408L74.5 5e2H0zM0 0l333.3 166.7h-74.5L0 37.3V0zm592.1 166.7L925.5.0H1e3L666.7 166.7H592zm408 333.3L666.6 333.3h74.5L1e3 462.7V5e2z"/></g></g></svg>