<svg xmlns="http://www.w3.org/2000/svg" version="1.1" xmlns:xlink="http://www.w3.org/1999/xlink" width="512"
  height="512" x="0" y="0" viewBox="0 0 64 64" style="enable-background:new 0 0 512 512" xml:space="preserve" class="">
  <g>
    <g data-name="Layer 36">
      <path fill="#ed1c24"
        d="M59 32c0 2.05 4.81 4.06 4.44 6a31.953 31.953 0 0 1-10.53 18.22C51.74 57.235 47.309 54.164 46 55c-2.069 1.321-1.112 6.41-3.47 7.23a32.207 32.207 0 0 1-21.06 0c-2.287-.796-1.454-5.962-3.47-7.23-1.377-.866-5.684 2.284-6.91 1.22A31.953 31.953 0 0 1 .56 38C.19 36.06 5 34.05 5 32S.19 27.94.56 26A31.953 31.953 0 0 1 11.09 7.78C12.609 6.462 15 11 19 9c3.225-1.612.557-6.564 2.47-7.23a32.207 32.207 0 0 1 21.06 0C44.443 2.436 44.273 8 46 9c1.748 1.012 5.391-2.538 6.91-1.22A31.953 31.953 0 0 1 63.44 26c.37 1.94-4.44 3.95-4.44 6z"
        opacity="1" data-original="#ed1c24" data-darkreader-inline-fill=""
        style="--darkreader-inline-fill: var(--darkreader-background-ed1c24, #d7171e);" class=""></path>
      <path fill="#ed1c24"
        d="M59 32c0 2.05 4.81 4.06 4.44 6a31.953 31.953 0 0 1-10.53 18.22C51.74 57.235 47.309 54.164 46 55c-2.069 1.321-1.112 6.41-3.47 7.23a32.207 32.207 0 0 1-21.06 0c-2.287-.796-1.454-5.962-3.47-7.23-1.377-.866-5.684 2.284-6.91 1.22A31.953 31.953 0 0 1 .56 38C.19 36.06 5 34.05 5 32S.19 27.94.56 26A31.953 31.953 0 0 1 11.09 7.78C12.609 6.462 15 11 19 9c3.225-1.612.557-6.564 2.47-7.23a32.207 32.207 0 0 1 21.06 0C44.443 2.436 44.273 8 46 9c1.748 1.012 5.391-2.538 6.91-1.22A31.953 31.953 0 0 1 63.44 26c.37 1.94-4.44 3.95-4.44 6z"
        opacity="1" data-original="#ed1c24" data-darkreader-inline-fill=""
        style="--darkreader-inline-fill: var(--darkreader-background-ed1c24, #d7171e);" class=""></path>
      <path fill="#f4eee9"
        d="M51 36h4.66a23.777 23.777 0 0 1-4.1 9.9l-3.3-3.29-5.65 5.65 3.29 3.3a23.777 23.777 0 0 1-9.9 4.1V51h-8v4.66a23.777 23.777 0 0 1-9.9-4.1l3.29-3.3-5.65-5.65-3.3 3.29a23.777 23.777 0 0 1-4.1-9.9H13v-8H8.34a23.777 23.777 0 0 1 4.1-9.9l3.3 3.29 5.65-5.65-3.29-3.3a23.777 23.777 0 0 1 9.9-4.1V13h8V8.34a23.777 23.777 0 0 1 9.9 4.1l-3.29 3.3 5.65 5.65 3.3-3.29a23.777 23.777 0 0 1 4.1 9.9H51zM64 32a32.038 32.038 0 0 1-.56 6H60a2.006 2.006 0 0 1-2-2v-8a2.006 2.006 0 0 1 2-2h3.44a32.038 32.038 0 0 1 .56 6z"
        opacity="1" data-original="#f4eee9" data-darkreader-inline-fill=""
        style="--darkreader-inline-fill: var(--darkreader-background-f4eee9, #3c2d22);" class=""></path>
      <path fill="#c1272d"
        d="M36 8.34V13h-8V8.34a.277.277 0 0 1 .09-.01c.2-.04.39-.07.59-.09a5.032 5.032 0 0 1 .56-.08c.17-.02.34-.04.51-.05.27-.03.55-.05.83-.07.47-.03.94-.04 1.42-.04s.95.01 1.42.04c.28.02.56.04.83.07.17.01.34.03.51.05a5.032 5.032 0 0 1 .56.08c.2.02.39.05.59.09a.277.277 0 0 1 .09.01zM21.39 15.74l-5.65 5.65-3.3-3.29a1.923 1.923 0 0 1 .13-.17c.11-.16.22-.32.34-.47.19-.26.39-.51.61-.76.2-.25.41-.5.63-.74.28-.32.58-.63.88-.93s.61-.6.93-.88c.24-.22.49-.43.74-.63.25-.22.5-.42.76-.61.15-.12.31-.23.47-.34a1.923 1.923 0 0 1 .17-.13zM13 28v8H8.34a.277.277 0 0 1-.01-.09c-.04-.2-.07-.39-.09-.59a5.032 5.032 0 0 1-.08-.56c-.02-.17-.04-.34-.05-.51-.03-.27-.05-.55-.07-.83C8.01 32.95 8 32.48 8 32s.01-.95.04-1.42c.02-.28.04-.56.07-.83.01-.17.03-.34.05-.51a5.032 5.032 0 0 1 .08-.56c.02-.2.05-.39.09-.59a.277.277 0 0 1 .01-.09zM21.39 48.26l-3.29 3.3a1.923 1.923 0 0 1-.17-.13c-.16-.11-.32-.22-.47-.34-.26-.19-.51-.39-.76-.61-.25-.2-.5-.41-.74-.63-.32-.28-.63-.58-.93-.88s-.6-.61-.88-.93c-.22-.24-.43-.49-.63-.74-.22-.25-.42-.5-.61-.76-.12-.15-.23-.31-.34-.47a1.923 1.923 0 0 1-.13-.17l3.3-3.29zM36 51v4.66a.277.277 0 0 1-.09.01c-.2.04-.39.07-.59.09a5.032 5.032 0 0 1-.56.08c-.17.02-.34.04-.51.05-.27.03-.55.05-.83.07-.47.03-.94.04-1.42.04s-.95-.01-1.42-.04c-.28-.02-.56-.04-.83-.07-.17-.01-.34-.03-.51-.05a5.032 5.032 0 0 1-.56-.08c-.2-.02-.39-.05-.59-.09a.277.277 0 0 1-.09-.01V51zM51.56 45.9a1.923 1.923 0 0 1-.13.17c-.11.16-.22.32-.34.47-.19.26-.39.51-.61.76-.2.25-.41.5-.63.74-.28.32-.58.63-.88.93s-.61.6-.93.88c-.24.22-.49.43-.74.63-.25.22-.5.42-.76.61-.15.12-.31.23-.47.34a1.923 1.923 0 0 1-.17.13l-3.29-3.3 5.65-5.65z"
        opacity="1" data-original="#c1272d" data-darkreader-inline-fill=""
        style="--darkreader-inline-fill: var(--darkreader-background-c1272d, #b62a2f);"></path>
      <path fill="#c6053c"
        d="M56 32c0 .48-.01.95-.04 1.42-.02.28-.04.56-.07.83-.01.17-.03.34-.05.51a5.032 5.032 0 0 1-.08.56c-.02.2-.05.39-.09.59a.277.277 0 0 1-.01.09H51v-8h4.66a.277.277 0 0 1 .01.09c.04.2.07.39.09.59a5.032 5.032 0 0 1 .08.56c.02.17.04.34.05.51.03.27.05.55.07.83.03.47.04.94.04 1.42z"
        opacity="1" data-original="#c6053c" data-darkreader-inline-fill=""
        style="--darkreader-inline-fill: var(--darkreader-background-c6053c, #ba0b3d);"></path>
      <path fill="#c1272d"
        d="m51.56 18.1-3.3 3.29-5.65-5.65 3.29-3.3a1.923 1.923 0 0 1 .17.13c.16.11.32.22.47.34.26.19.51.39.76.61.25.2.5.41.74.63.32.28.63.58.93.88s.6.61.88.93c.22.24.43.49.63.74.22.25.42.5.61.76.12.15.23.31.34.47a1.923 1.923 0 0 1 .13.17z"
        opacity="1" data-original="#c1272d" data-darkreader-inline-fill=""
        style="--darkreader-inline-fill: var(--darkreader-background-c1272d, #b62a2f);"></path>
      <circle cx="32" cy="32" r="21" fill="#c1272d" opacity="1" data-original="#c1272d" data-darkreader-inline-fill=""
        style="--darkreader-inline-fill: var(--darkreader-background-c1272d, #b62a2f);"></circle>
      <g fill="#f4eee9" data-darkreader-inline-fill=""
        style="--darkreader-inline-fill: var(--darkreader-background-f4eee9, #3c2d22);">
        <circle cx="32" cy="32" r="20" fill="#f4eee9" opacity="1" data-original="#f4eee9" data-darkreader-inline-fill=""
          style="--darkreader-inline-fill: var(--darkreader-background-f4eee9, #3c2d22);" class=""></circle>
        <path
          d="m52.91 7.78-1.71 2.97a2 2 0 0 1-2.74.73l-6.92-4a1.998 1.998 0 0 1-.74-2.73l1.73-2.98a31.76 31.76 0 0 1 10.38 6.01zM22.46 7.48l-6.92 4a2 2 0 0 1-2.74-.73l-1.71-2.97a31.76 31.76 0 0 1 10.38-6.01l1.73 2.98a1.998 1.998 0 0 1-.74 2.73zM6 28v8a2.006 2.006 0 0 1-2 2H.56a32.423 32.423 0 0 1 0-12H4a2.006 2.006 0 0 1 2 2zM23.2 59.25l-1.73 2.98a31.76 31.76 0 0 1-10.38-6.01l1.71-2.97a2 2 0 0 1 2.74-.73l6.92 4a1.998 1.998 0 0 1 .74 2.73zM52.91 56.22a31.76 31.76 0 0 1-10.38 6.01l-1.73-2.98a1.998 1.998 0 0 1 .74-2.73l6.92-4a2 2 0 0 1 2.74.73z"
          fill="#f4eee9" opacity="1" data-original="#f4eee9" data-darkreader-inline-fill=""
          style="--darkreader-inline-fill: var(--darkreader-background-f4eee9, #3c2d22);" class=""></path>
      </g>
      <path fill="#171717" d="M25.343 40.844h.313l.937 2.656h-2.187z" opacity="1" data-original="#171717"
        data-darkreader-inline-fill="" style="--darkreader-inline-fill: var(--darkreader-text-171717, #fefaf5);"></path>
      <path fill="#171717"
        d="M27.843 37.25c-.063 0-.124.005-.186.009a2.5 2.5 0 1 0-4.315 0c-.062-.004-.123-.009-.186-.009a2.505 2.505 0 1 0 0 5 2.681 2.681 0 0 0 2.343-1.324 2.681 2.681 0 0 0 2.344 1.324 2.505 2.505 0 1 0 0-5zM42.79 29.084a2.262 2.262 0 0 1-3.437 0l-.426-.473-.427-.475-.426.475-.427.473a2.258 2.258 0 0 1-2.454.663 2.393 2.393 0 0 1-.98-.663 2.915 2.915 0 0 1 0-3.818l.853-.949L38.5 20.5l1.178 1.31 2.258 2.507.853.949a2.918 2.918 0 0 1 0 3.818z"
        opacity="1" data-original="#171717" data-darkreader-inline-fill=""
        style="--darkreader-inline-fill: var(--darkreader-background-171717, #1a1c1c);"></path>
      <path fill="#171717" d="M38.344 27.844h.313l.937 2.656h-2.187z" opacity="1" data-original="#171717"
        data-darkreader-inline-fill="" style="--darkreader-inline-fill: var(--darkreader-text-171717, #fefaf5);"></path>
      <path fill="#ed1c24"
        d="M38.5 43.5a20.482 20.482 0 0 0-5-5 20.482 20.482 0 0 0 5-5 20.482 20.482 0 0 0 5 5 20.482 20.482 0 0 0-5 5zM30.5 23.38a3.159 3.159 0 0 1-.713 2.037l-.853 1.012L25.5 30.5l-3.435-4.071-.853-1.012a3.27 3.27 0 0 1 0-4.073 2.17 2.17 0 0 1 3.435 0l.853 1.012.853-1.012a2.17 2.17 0 0 1 3.435 0 3.161 3.161 0 0 1 .712 2.036z"
        opacity="1" data-original="#ed1c24" data-darkreader-inline-fill=""
        style="--darkreader-inline-fill: var(--darkreader-background-ed1c24, #d7171e);" class=""></path>
      <path d="M64 32a32.005 32.005 0 0 1-51.22 25.59A32.01 32.01 0 0 0 44.22 2.41 32.034 32.034 0 0 1 64 32z"
        opacity="1" fill="#00000020" data-original="#00000020" data-darkreader-inline-fill=""
        style="--darkreader-inline-fill: var(--darkreader-background-00000020, rgba(6, 6, 6, 0.13));"></path>
    </g>
  </g>
</svg>