<svg width="512" height="512" viewBox="0 0 512 512" fill="none" xmlns="http://www.w3.org/2000/svg">
  <g clip-path="url(#clip0_9217_4921)">
    <path
      d="M256 0C114.615 0 0 114.615 0 256C0 397.385 114.615 512 256 512C397.385 512 512 397.385 512 256C512 114.615 397.385 0 256 0Z"
      fill="#D90026" />
    <path
      d="M224.921 162C244.321 162 263.721 161.88 283.111 162.12C286.276 162.334 289.353 163.26 292.111 164.83C306.031 173.2 317.111 184.66 316.011 202.5C315.081 234.16 315.651 265.88 315.811 297.57C315.811 304.64 313.251 309.94 308.071 314.67C272.001 346.19 247.251 368 243.001 418.69C237.461 442.47 205.091 426.13 203.841 407.69C194.451 367.42 226.181 330.25 208.611 331.89C187.171 331.136 165.731 330.406 144.291 329.7C128.441 329.19 115.611 315.48 116.031 297.56C118.601 262.83 125.821 228.37 129.301 193.69C136.821 148.82 192.651 164.88 224.921 162Z"
      fill="white" />
    <path
      d="M339.14 316.53H386.37C391.689 316.53 396 312.218 396 306.9V173.3C396 167.981 391.689 163.67 386.37 163.67H339.14C333.821 163.67 329.51 167.981 329.51 173.3V306.9C329.51 312.218 333.821 316.53 339.14 316.53Z"
      fill="white" />
  </g>
  <defs>
    <clipPath id="clip0_9217_4921">
      <rect width="512" height="512" fill="white" transform="matrix(-1 0 0 -1 512 512)" />
    </clipPath>
  </defs>
</svg>