<svg width="512" height="512" viewBox="0 0 512 512" fill="none" xmlns="http://www.w3.org/2000/svg">
  <g clip-path="url(#clip0_9217_4912)">
    <path
      d="M256 512C397.385 512 512 397.385 512 256C512 114.615 397.385 0 256 0C114.615 0 0 114.615 0 256C0 397.385 114.615 512 256 512Z"
      fill="#36B37E" />
    <path
      d="M287.079 373C267.679 373 248.279 373.12 228.889 372.88C225.724 372.666 222.647 371.74 219.889 370.17C205.969 361.8 194.889 350.34 195.989 332.5C196.919 300.84 196.349 269.12 196.189 237.43C196.189 230.36 198.749 225.06 203.929 220.33C239.999 188.81 264.749 167 268.999 116.31C274.539 92.5302 306.909 108.87 308.159 127.31C317.549 167.58 285.819 204.75 303.389 203.11C324.829 203.864 346.269 204.594 367.709 205.3C383.559 205.81 396.389 219.52 395.969 237.44C393.399 272.17 386.179 306.63 382.699 341.31C375.179 386.18 319.349 370.12 287.079 373Z"
      fill="white" />
    <path
      d="M172.86 218.47H125.63C120.311 218.47 116 222.782 116 228.1V361.7C116 367.019 120.311 371.33 125.63 371.33H172.86C178.179 371.33 182.49 367.019 182.49 361.7V228.1C182.49 222.782 178.179 218.47 172.86 218.47Z"
      fill="white" />
  </g>
  <defs>
    <clipPath id="clip0_9217_4912">
      <rect width="512" height="512" fill="white" />
    </clipPath>
  </defs>
</svg>