<svg width="490" height="512" viewBox="0 0 490 512" fill="none" xmlns="http://www.w3.org/2000/svg">
  <path
    d="M474.5 193.656C466.216 193.656 459.5 200.372 459.5 208.656V305.5H429.5V245C429.5 236.716 422.784 230 414.5 230H309.426V411H414.5C422.784 411 429.5 404.284 429.5 396V335.5H474.5C482.784 335.5 489.5 328.784 489.5 320.5V208.656C489.5 200.372 482.785 193.656 474.5 193.656ZM403.254 290.074L371.197 362.998C368.727 368.618 363.226 371.965 357.458 371.966C355.441 371.966 353.394 371.557 351.43 370.694C343.846 367.36 340.401 358.509 343.735 350.926L366.544 299.038H349.405C341.121 299.038 334.405 292.322 334.405 284.038C334.405 275.754 341.121 269.038 349.405 269.038H389.523C392.017 269.037 394.471 269.659 396.665 270.846C398.858 272.034 400.721 273.749 402.084 275.838C403.447 277.926 404.268 280.322 404.472 282.808C404.677 285.293 404.258 287.791 403.254 290.074ZM220.305 105.625L215.093 98.9868L210.367 105.099C208.639 107.333 206.315 109.034 203.664 110.007L195.741 112.913L200.094 119.296C201.685 121.629 202.585 124.365 202.691 127.188L203.006 135.622L210.421 133.455C213.132 132.663 216.011 132.652 218.729 133.423L226.847 135.73L227.077 128.008C227.161 125.185 228.04 122.443 229.614 120.097L234.317 113.089L227.044 110.484C224.385 109.53 222.049 107.846 220.305 105.625Z"
    fill="#fff" />
  <path
    d="M401.499 138C401.499 129.716 394.783 123 386.499 123H364.61C358.285 91.0398 341.758 61.7949 317.222 39.5569C289.079 14.048 252.776 0 215 0C177.226 0 140.923 14.048 112.778 39.5579C88.2428 61.7959 71.7159 91.0398 65.3909 123H43.5009C35.2169 123 28.5009 129.716 28.5009 138V200H401.499V138ZM269.956 113.816L256.935 133.221L256.26 155.866C256.193 158.147 255.605 160.382 254.543 162.402C253.48 164.422 251.971 166.173 250.13 167.521C248.289 168.87 246.164 169.78 243.918 170.183C241.671 170.586 239.363 170.472 237.168 169.848L214.689 163.461L192.944 169.817C190.753 170.457 188.446 170.589 186.197 170.203C183.948 169.817 181.817 168.922 179.966 167.588C178.114 166.253 176.591 164.514 175.514 162.502C174.436 160.491 173.832 158.259 173.747 155.979L172.875 132.626L160.11 113.909C158.823 112.024 157.984 109.87 157.656 107.611C157.328 105.352 157.52 103.049 158.217 100.875C158.914 98.7021 160.098 96.7166 161.678 95.0702C163.259 93.4238 165.195 92.1599 167.338 91.3748L189.278 83.3288L203.134 65.4059C204.53 63.6005 206.319 62.1375 208.366 61.1281C210.412 60.1187 212.663 59.5895 214.945 59.5809H215.002C219.606 59.5809 223.955 61.6949 226.8 65.3169L241.232 83.6968L262.559 91.3358C264.707 92.1061 266.652 93.3561 268.244 94.9909C269.836 96.6256 271.034 98.602 271.747 100.77C272.461 102.937 272.67 105.239 272.36 107.5C272.049 109.76 271.227 111.921 269.956 113.816ZM249.169 440.999H180.832C161.351 440.999 145.501 456.849 145.501 476.33C145.501 495.812 161.351 511.662 180.832 511.662H249.169C268.649 511.662 284.499 495.812 284.499 476.33C284.499 456.849 268.65 440.999 249.169 440.999ZM314.499 476.331C314.499 489.486 310.577 501.737 303.861 512H386.499C394.783 512 401.499 505.284 401.499 497V441H304.077C310.661 451.194 314.499 463.319 314.499 476.331ZM125.923 440.999H28.5009V496.999C28.5009 505.283 35.2169 511.999 43.5009 511.999H126.139C119.422 501.735 115.501 489.485 115.501 476.33C115.501 463.319 119.34 451.194 125.923 440.999ZM120.576 230H15.5C7.21599 230 0.5 236.716 0.5 245V395.999C0.5 404.283 7.21599 410.999 15.5 410.999H120.575V230H120.576ZM94.3278 290.073L62.2709 362.997C59.8009 368.617 54.2999 371.964 48.5319 371.965C46.5149 371.965 44.4679 371.556 42.5039 370.693C34.9199 367.359 31.4749 358.508 34.8089 350.925L57.6179 299.037H40.4799C32.1959 299.037 25.4799 292.321 25.4799 284.037C25.4799 275.753 32.1959 269.037 40.4799 269.037H80.5968C83.0909 269.037 85.5457 269.659 87.739 270.846C89.9323 272.033 91.7949 273.749 93.1582 275.838C94.5214 277.926 95.3423 280.322 95.5465 282.807C95.7508 285.293 95.3319 287.79 94.3278 290.073ZM279.425 410.999V230H150.576V410.999H279.425ZM194.942 269.037H235.06C237.553 269.038 240.008 269.66 242.201 270.848C244.393 272.035 246.256 273.751 247.619 275.839C248.982 277.927 249.803 280.322 250.008 282.808C250.213 285.293 249.795 287.79 248.792 290.073L216.735 362.997C214.265 368.617 208.764 371.964 202.996 371.965C200.979 371.965 198.932 371.556 196.968 370.693C189.384 367.359 185.939 358.508 189.273 350.925L212.082 299.037H194.943C186.659 299.037 179.943 292.321 179.943 284.037C179.943 275.753 186.658 269.037 194.942 269.037Z"
    fill="#fff" />
</svg>